<?xml version="1.0" standalone="no"?>
<!DOCTYPE svg PUBLIC "-//W3C//DTD SVG 20010904//EN"
 "http://www.w3.org/TR/2001/REC-SVG-20010904/DTD/svg10.dtd">
<svg version="1.0" xmlns="http://www.w3.org/2000/svg"
 width="120.000000pt" height="120.000000pt" viewBox="0 0 120.000000 120.000000"
 preserveAspectRatio="xMidYMid meet">
<metadata>
Created by potrace 1.14, written by Peter Selinger 2001-2017
</metadata>
<g transform="translate(0.000000,120.000000) scale(0.100000,-0.100000)"
fill="#000000" stroke="none">
<path d="M332 1170 c0 -19 2 -27 5 -17 2 9 2 25 0 35 -3 9 -5 1 -5 -18z"/>
<path d="M463 1040 c-23 -5 -51 -14 -62 -19 -11 -6 -27 -11 -35 -11 -19 0
-118 -92 -160 -150 -19 -26 -45 -82 -59 -130 -17 -55 -33 -89 -46 -97 -47 -29
-54 -56 -41 -146 6 -45 15 -86 20 -92 13 -16 36 -109 32 -127 -2 -10 -9 -18
-16 -18 -13 0 -46 31 -46 42 0 3 -11 26 -25 49 l-25 44 0 -192 0 -193 360 0
360 0 73 35 c75 36 143 93 158 133 12 30 1 92 -16 99 -7 2 -19 18 -25 34 -11
26 -17 29 -60 29 -48 0 -147 -29 -185 -54 -33 -21 -127 -30 -170 -16 -48 16
-175 89 -175 101 0 12 17 11 39 -3 27 -17 178 5 224 32 l37 22 -20 28 c-24 33
-54 46 -143 63 -37 7 -68 17 -67 22 0 6 37 10 83 11 112 1 117 2 85 20 l-28
14 21 21 c24 24 20 30 -38 52 -50 19 -69 15 -77 -19 -8 -29 -47 -33 -92 -9
-36 19 -78 19 -93 1 -17 -20 -3 -143 20 -184 22 -39 23 -42 6 -42 -7 0 -36 24
-64 53 -48 49 -71 96 -70 142 0 11 -3 27 -7 35 -9 21 57 50 113 50 40 0 43 2
37 23 -4 18 1 30 20 48 21 19 25 31 21 56 -16 94 148 77 191 -20 16 -36 17
-37 23 -16 8 37 -7 88 -34 118 -25 26 -25 26 -7 49 28 34 129 48 170 24 17 -9
30 -22 30 -29 0 -17 33 -33 70 -33 110 0 201 -104 229 -262 6 -31 21 -79 34
-105 13 -26 30 -71 36 -100 14 -59 27 -68 60 -42 23 19 23 20 6 39 -10 11 -14
20 -10 20 5 0 0 6 -10 14 -17 12 -18 16 -5 31 10 12 14 38 11 91 -6 146 -54
267 -140 352 -75 73 -230 121 -299 93 -22 -9 -34 -9 -58 4 -40 20 -108 26
-161 15z"/>
<path d="M708 860 c-81 -25 -118 -74 -118 -156 0 -46 25 -84 55 -84 20 0 19 7
-5 37 -12 16 -20 41 -20 64 0 87 131 137 218 82 26 -16 38 -12 29 10 -12 31
-113 61 -159 47z"/>
<path d="M665 756 c-36 -36 -30 -61 14 -61 23 0 38 6 46 20 11 17 10 23 -10
44 l-23 24 -27 -27z"/>
<path d="M700 560 c-8 -15 -21 -20 -55 -20 -49 0 -59 -14 -21 -31 13 -6 30
-22 37 -35 7 -14 21 -24 34 -24 11 0 26 -5 32 -11 7 -7 19 -2 42 16 54 46 34
125 -32 125 -16 0 -30 -8 -37 -20z"/>
<path d="M1152 429 c2 -7 10 -15 17 -17 8 -3 12 1 9 9 -2 7 -10 15 -17 17 -8
3 -12 -1 -9 -9z"/>
<path d="M1080 320 c0 -14 39 -32 52 -24 7 5 5 11 -7 21 -22 15 -45 17 -45 3z"/>
</g>
</svg>
